<?xml version="1.0" encoding="UTF-8" standalone="no"?>
<!-- Generator: Adobe Illustrator 16.0.0, SVG Export Plug-In . SVG Version: 6.00 Build 0)  -->

<svg
   xmlns:dc="http://purl.org/dc/elements/1.1/"
   xmlns:cc="http://creativecommons.org/ns#"
   xmlns:rdf="http://www.w3.org/1999/02/22-rdf-syntax-ns#"
   xmlns:svg="http://www.w3.org/2000/svg"
   xmlns="http://www.w3.org/2000/svg"
   xmlns:sodipodi="http://sodipodi.sourceforge.net/DTD/sodipodi-0.dtd"
   xmlns:inkscape="http://www.inkscape.org/namespaces/inkscape"
   version="1.1"
   id="Capa_1"
   x="0px"
   y="0px"
   width="100"
   height="100"
   viewBox="0 0 99.999997 99.999997"
   xml:space="preserve"
   sodipodi:docname="settings.svg"
   inkscape:version="0.92.4 (5da689c313, 2019-01-14)"><metadata
   id="metadata931"><rdf:RDF><cc:Work
       rdf:about=""><dc:format>image/svg+xml</dc:format><dc:type
         rdf:resource="http://purl.org/dc/dcmitype/StillImage" /><dc:title></dc:title></cc:Work></rdf:RDF></metadata><defs
   id="defs929">
	
</defs><sodipodi:namedview
   pagecolor="#ffffff"
   bordercolor="#666666"
   borderopacity="1"
   objecttolerance="10"
   gridtolerance="10"
   guidetolerance="10"
   inkscape:pageopacity="0"
   inkscape:pageshadow="2"
   inkscape:window-width="2560"
   inkscape:window-height="1440"
   id="namedview927"
   showgrid="false"
   inkscape:zoom="13.22"
   inkscape:cx="50"
   inkscape:cy="37.897126"
   inkscape:window-x="0"
   inkscape:window-y="0"
   inkscape:window-maximized="1"
   inkscape:current-layer="Capa_1" />
<path
   inkscape:connector-curvature="0"
   d="m 96.340954,83.76471 -9.905851,-1.65256 c -0.719956,-2.94353 -1.769703,-5.75727 -3.13685,-8.3816 l 6.341445,-7.86295 c 1.348733,-1.66172 1.287463,-4.05269 -0.134483,-5.65648 l -3.939729,-4.43405 c -1.428084,-1.60212 -3.796319,-1.94096 -5.602739,-0.79966 l -8.471406,5.32545 c -3.726008,-2.60335 -7.946645,-4.52579 -12.499638,-5.6413 l -1.657318,-9.95928 c -0.347757,-2.10882 -2.172593,-3.65614 -4.314718,-3.65614 h -5.937105 c -2.137772,0 -3.968746,1.54732 -4.308803,3.65614 l -1.666358,9.9624 c -3.764288,0.92165 -7.29365,2.40938 -10.514539,4.36876 L 22.5364,53.28365 c -1.736334,-1.24051 -4.121198,-1.04654 -5.636444,0.46552 l -4.19441,4.19755 c -1.512009,1.51529 -1.705977,3.90022 -0.462263,5.63661 l 5.763003,8.07211 c -1.940904,3.19665 -3.413294,6.70603 -4.334808,10.43695 L 3.6558091,83.76483 C 1.5502898,84.11259 0,85.9376 0,88.0799 v 5.93259 c 0,2.14208 1.5502898,3.96731 3.6558091,4.31508 L 13.671478,100 c 18.191771,-0.0047 27.287657,-0.007 31.8356,-0.0082 4.547942,-0.0012 4.547942,-0.0012 4.547942,-0.0012 0,0 0,0 4.547943,-0.0012 4.547943,-0.0012 13.643829,-0.0035 31.8356,-0.0082 l 9.90574,-1.65402 C 98.45596,97.97946 100,96.15435 100,94.01216 v -5.9326 C 99.9969,85.9376 98.452835,84.11259 96.340954,83.76471 Z M 31.407571,91.0462 c 0,-10.35314 8.396631,-18.75003 18.749456,-18.75003 10.351039,0 18.749232,8.39689 18.749232,18.75003 -37.498688,0 0,0 -37.498688,0 z"
   id="settings_1_"
   style="fill:#fffffe;fill-opacity:1;stroke-width:0.11160558"
   sodipodi:nodetypes="ccccccccccssccccccccccssccscsccscccscc" />
<g
   id="g896"
   transform="translate(0,-796.02502)">
</g>
<g
   id="g898"
   transform="translate(0,-796.02502)">
</g>
<g
   id="g900"
   transform="translate(0,-796.02502)">
</g>
<g
   id="g902"
   transform="translate(0,-796.02502)">
</g>
<g
   id="g904"
   transform="translate(0,-796.02502)">
</g>
<g
   id="g906"
   transform="translate(0,-796.02502)">
</g>
<g
   id="g908"
   transform="translate(0,-796.02502)">
</g>
<g
   id="g910"
   transform="translate(0,-796.02502)">
</g>
<g
   id="g912"
   transform="translate(0,-796.02502)">
</g>
<g
   id="g914"
   transform="translate(0,-796.02502)">
</g>
<g
   id="g916"
   transform="translate(0,-796.02502)">
</g>
<g
   id="g918"
   transform="translate(0,-796.02502)">
</g>
<g
   id="g920"
   transform="translate(0,-796.02502)">
</g>
<g
   id="g922"
   transform="translate(0,-796.02502)">
</g>
<g
   id="g924"
   transform="translate(0,-796.02502)">
</g>
</svg>