<?xml version="1.0" encoding="utf-8"?>
<!-- Generator: Adobe Illustrator 23.1.0, SVG Export Plug-In . SVG Version: 6.00 Build 0)  -->
<svg version="1.1" id="Capa_1" xmlns="http://www.w3.org/2000/svg" xmlns:xlink="http://www.w3.org/1999/xlink" x="0px" y="0px"
	 viewBox="0 0 247.1 247.1" enable-background="new 0 0 247.1 247.1" xml:space="preserve">
<path fill="none" stroke="#000000" stroke-width="4.025" stroke-miterlimit="10" d="M54,217.7h64.6V206H54c-3.2,0-5.9-2.6-5.9-5.9
	V47.3c0-3.2,2.6-5.9,5.9-5.9h76.4v29.4c0,9.7,7.9,17.6,17.6,17.6h29.4V112h11.7V87.5c0-4.7-1.9-9.2-5.2-12.5c0,0,0,0,0,0l-42.8-42.8
	c-1.1-1.1-2.6-1.5-4.1-1.5c-1.8-0.6-3.7-1-5.7-1H54c-9.7,0-17.6,7.9-17.6,17.6v152.7C36.4,209.8,44.3,217.7,54,217.7z M142.2,49.8
	l26.9,26.9H148c-3.2,0-5.9-2.6-5.9-5.9V49.8z"/>
<path d="M210.8,133.7l-10.7-17.3c-1.3-2.1-3.3-3.5-5.6-4.1c-2.3-0.5-4.8-0.2-6.8,1.1l-11.6,7.1c-1.7-1-4-1.1-5.7-0.1l-5,3.1
	c-2,1.2-2.8,3.6-2.4,5.8l-56,34.5c-0.2,0.1-0.4,0.2-0.4,0.4c0,0,0,0,0,0.1c-0.2,0.1-0.2,0.3-0.4,0.4l0,0l-13.9,22.6l0,0l-1.5,2.4
	l-1.5,2.4c0,0.1-0.1,0.3-0.2,0.3c-0.6,1.4-0.6,2.6-0.4,3.4c0.1,0.3,0.2,0.6,0.3,0.8c0.6,1.2,1.8,2.1,3.2,2.4l0,0
	c0.1,0,0.3,0.1,0.4,0.1c0.3,0.1,0.4,0.1,0.6,0.1l0,0l0,0c0.1,0,0.3,0.1,0.3-0.1l3.9-0.3l28-2.4l0,0c0.5,0,0.8-0.1,1.1-0.3l56.1-34.6
	c0.5,0.4,1.1,0.6,1.8,0.7c1.4,0.3,2.9,0.1,4.1-0.7l5-3.1c2-1.2,2.8-3.3,2.5-5.3l11.6-7.1C212.1,143.6,213.4,138,210.8,133.7z
	 M126.3,190.1l-5.6-9.1l53.3-33l5.6,9.1L126.3,190.1z M171.2,143.4l-53.3,33l-5.6-9.2l53.3-32.9L171.2,143.4z M100.6,193.2l-2.7-4.5
	l10.6-17.3l6.2,10l0,0l0,0l6.2,10L100.6,193.2z M186.9,156.5c-0.1-0.2-0.1-0.3-0.2-0.4l-17-27.8c-0.2-0.4-0.3-0.5-0.6-0.7l4-2.6
	l0.2,0.4l0,0l17.3,28c0.1,0.2,0.2,0.4,0.4,0.4L186.9,156.5z M204.9,141.6l-11.2,6.9l-14.4-23.5l11.2-6.9c1.6-1,3.9-0.4,4.9,1.2
	l10.7,17.3C207.1,138.3,206.6,140.5,204.9,141.6z"/>
</svg>
