<?xml version="1.0" ?><!DOCTYPE svg  PUBLIC '-//W3C//DTD SVG 1.1//EN'  'http://www.w3.org/Graphics/SVG/1.1/DTD/svg11.dtd'><svg enable-background="new 0 0 91 91" height="91px" id="Layer_1" version="1.1" viewBox="0 0 91 91" width="91px" xml:space="preserve" xmlns="http://www.w3.org/2000/svg" xmlns:xlink="http://www.w3.org/1999/xlink"><g><path d="M19.684,55.978c0-2.58,1.712-5.039,4.554-6.746c1.972,1.869,4.426,3.225,7.158,3.85l-3.174,15.473l6.705,5.365l6.707-5.367   l-3.229-15.514c2.705-0.65,5.133-2.012,7.079-3.885c2.923,1.709,4.687,4.197,4.687,6.824v10.904h3.4V55.978   c0-3.699-2.209-7.123-5.887-9.451c1.631-2.463,2.586-5.416,2.586-8.59c0-8.57-6.934-15.543-15.455-15.543   c-8.518,0-15.447,6.973-15.447,15.543c0,3.215,0.977,6.207,2.646,8.689c-3.581,2.326-5.73,5.715-5.73,9.352v10.904h3.399V55.978z    M34.927,69.565L31.971,67.2l2.575-12.559h0.721l2.613,12.561L34.927,69.565z M34.815,25.794c6.646,0,12.055,5.447,12.055,12.143   s-5.408,12.143-12.055,12.143c-6.643,0-12.047-5.447-12.047-12.143S28.173,25.794,34.815,25.794z"/><polygon points="68.461,26.358 65.061,26.358 65.061,31.528 59.892,31.528 59.892,34.929 65.061,34.929 65.061,40.097    68.461,40.097 68.461,34.929 73.63,34.929 73.63,31.528 68.461,31.528  "/><path d="M66.905,19.581c-7.459,0-13.525,6.068-13.525,13.525s6.066,13.525,13.525,13.525c7.458,0,13.525-6.068,13.525-13.525   S74.363,19.581,66.905,19.581z M66.905,43.231c-5.583,0-10.125-4.541-10.125-10.125c0-5.582,4.542-10.125,10.125-10.125   S77.03,27.524,77.03,33.106C77.03,38.69,72.488,43.231,66.905,43.231z"/></g></svg>