<?xml version="1.0" encoding="utf-8"?>
<!-- Generator: Adobe Illustrator 23.1.0, SVG Export Plug-In . SVG Version: 6.00 Build 0)  -->
<svg version="1.1" id="Capa_1" xmlns="http://www.w3.org/2000/svg" xmlns:xlink="http://www.w3.org/1999/xlink" x="0px" y="0px"
	 viewBox="0 0 247.1 247.1" enable-background="new 0 0 247.1 247.1" xml:space="preserve">
<path fill="none" stroke="#000000" stroke-width="4" stroke-miterlimit="10" d="M123.9,206.6c45.8,0,82.9-37.1,82.9-82.9
	c0-45.8-37.1-82.9-82.9-82.9C78.1,40.8,41,77.9,41,123.7C41,169.5,78.1,206.6,123.9,206.6z"/>
<path fill="none" stroke="#000000" stroke-width="8.0501" stroke-linecap="round" stroke-miterlimit="10" d="M92.8,130.6l18,18"/>
<path fill="none" stroke="#000000" stroke-width="8.0501" stroke-linecap="round" stroke-miterlimit="10" d="M159.8,103l-45.6,45.6"
	/>
<path fill="none" stroke="#000000" stroke-width="4" stroke-miterlimit="10" d="M30.6,123.7c0-51.5,41.8-93.3,93.3-93.3
	c51.5,0,93.3,41.8,93.3,93.3c0,51.5-41.8,93.3-93.3,93.3C72.4,217.1,30.6,175.3,30.6,123.7z"/>
</svg>
